<?xml version="1.0" encoding="UTF-8"?>
<svg version="1.1" xmlns="http://www.w3.org/2000/svg" width="396" height="353">
<path d="M0 0 C130.68 0 261.36 0 396 0 C396 116.49 396 232.98 396 353 C265.32 353 134.64 353 0 353 C0 236.51 0 120.02 0 0 Z " fill="#E9E9E7" transform="translate(0,0)"/>
<path d="M0 0 C25.08333333 0 25.08333333 0 31.9375 5.25 C37.51366996 12.68489328 36.82255496 23.12860805 36 32 C35.08259457 36.79577806 34.04482504 41.22842552 30.24609375 44.51953125 C28.375 45.625 28.375 45.625 25 47 C24.01 47.495 24.01 47.495 23 48 C15.41 48 7.82 48 0 48 C0 32.16 0 16.32 0 0 Z " fill="#303030" transform="translate(42,144)"/>
<path d="M0 0 C24.54545455 0 24.54545455 0 30.375 5.0625 C34.01008705 9.39664226 33.42934302 14.01481116 33.45703125 19.48046875 C32.95823875 23.32159734 32.33482705 24.32051499 29.625 26.9375 C27.81138731 28.64234613 27.81138731 28.64234613 27 31 C28.05554804 35.21779405 29.60098669 38.89898844 31.4765625 42.8046875 C33 46 33 46 33 48 C28.71 48 24.42 48 20 48 C19.16280617 45.70967689 18.3301071 43.41789043 17.5 41.125 C17.26152344 40.47402344 17.02304688 39.82304687 16.77734375 39.15234375 C15 34.2265625 15 34.2265625 15 32 C13.68 32 12.36 32 11 32 C11 37.28 11 42.56 11 48 C7.37 48 3.74 48 0 48 C0 32.16 0 16.32 0 0 Z " fill="#2E2E2E" transform="translate(193,144)"/>
<path d="M0 0 C4.53740946 1.85621296 7.24767092 4.98946334 10 9 C10.3125 12.375 10.3125 12.375 10 15 C8.02 15 6.04 15 4 15 C3.54625 13.865625 3.0925 12.73125 2.625 11.5625 C1.42904194 7.95278308 1.42904194 7.95278308 -1 7 C-5.60458071 6.49185192 -5.60458071 6.49185192 -9.6796875 8.22265625 C-11.32771616 10.44115637 -11.48909234 11.94947436 -11.6875 14.6875 C-11.75324219 15.49574219 -11.81898438 16.30398437 -11.88671875 17.13671875 C-11.92410156 17.75160156 -11.96148437 18.36648437 -12 19 C-11.25314941 18.99476318 -10.50629883 18.98952637 -9.73681641 18.98413086 C-6.36621943 18.96339599 -2.99563586 18.95035101 0.375 18.9375 C2.1384375 18.92493164 2.1384375 18.92493164 3.9375 18.91210938 C5.61972656 18.90727539 5.61972656 18.90727539 7.3359375 18.90234375 C8.89127197 18.89448853 8.89127197 18.89448853 10.47802734 18.88647461 C13 19 13 19 15 20 C15.11627503 23.58305992 15.1872736 27.16563417 15.25 30.75 C15.30027344 32.27367187 15.30027344 32.27367187 15.3515625 33.828125 C15.45080252 41.37036672 15.45080252 41.37036672 13.109375 44.640625 C7.82460785 48.04636383 2.33462213 47.22360334 -3.8125 47.25 C-5.59624023 47.2809375 -5.59624023 47.2809375 -7.41601562 47.3125 C-8.56392578 47.31765625 -9.71183594 47.3228125 -10.89453125 47.328125 C-11.94487549 47.3374707 -12.99521973 47.34681641 -14.07739258 47.35644531 C-17.45471889 46.94454184 -19.28263508 46.01917158 -22 44 C-24.1230081 40.81548785 -24.24884244 40.01526637 -24.23046875 36.3671875 C-24.22853516 35.47902344 -24.22660156 34.59085938 -24.22460938 33.67578125 C-24.21236328 32.75152344 -24.20011719 31.82726562 -24.1875 30.875 C-24.18685547 29.94300781 -24.18621094 29.01101562 -24.18554688 28.05078125 C-24.14028159 21.14028159 -24.14028159 21.14028159 -23 20 C-21.33382885 19.95936168 -19.66611905 19.957279 -18 20 C-18.03480469 19.41992188 -18.06960937 18.83984375 -18.10546875 18.2421875 C-18.34653152 11.28580479 -17.17715869 7.38450714 -12.375 2.125 C-8.04972895 -0.59831881 -4.97894944 -0.83136447 0 0 Z " fill="#303030" transform="translate(252,144)"/>
<path d="M0 0 C0.70318359 -0.01611328 1.40636719 -0.03222656 2.13085938 -0.04882812 C8.05380767 -0.05437915 11.10841232 1.51685186 15.375 5.4375 C17.79764894 9.56497597 17.3454762 12.57264871 17.0625 17.3125 C13.4325 17.3125 9.8025 17.3125 6.0625 17.3125 C5.4025 15.3325 4.7425 13.3525 4.0625 11.3125 C-0.03973585 10.29709888 -0.03973585 10.29709888 -3.9375 11.3125 C-3.9375 13.2925 -3.9375 15.2725 -3.9375 17.3125 C-2.29201172 17.76689453 -2.29201172 17.76689453 -0.61328125 18.23046875 C0.8413935 18.65279368 2.29580717 19.07601863 3.75 19.5 C4.47123047 19.69658203 5.19246094 19.89316406 5.93554688 20.09570312 C10.82285443 21.54627386 13.75355745 23.24433546 17.0625 27.3125 C18.61487855 31.96963565 19.12861778 36.71196972 17.2265625 41.3515625 C14.6936359 45.34644674 11.89307317 47.50123621 7.375 48.87890625 C0.51902712 50.16440116 -6.00686703 50.36268837 -11.9375 46.3125 C-15.545578 43.40599272 -16.83932118 40.79673019 -17.9375 36.3125 C-17.9375 34.6625 -17.9375 33.0125 -17.9375 31.3125 C-13.9775 31.3125 -10.0175 31.3125 -5.9375 31.3125 C-4.4525 34.7775 -4.4525 34.7775 -2.9375 38.3125 C1.20343698 38.52220559 1.20343698 38.52220559 5.0625 37.3125 C5.31280977 34.89630177 5.31280977 34.89630177 5.0625 32.3125 C1.77084922 30.11806615 -0.45545119 29.71933519 -4.3125 29 C-9.80132563 27.80199351 -12.65945695 26.87834568 -15.9375 22.3125 C-18.03919635 18.10910729 -17.47388925 12.87776849 -16.9375 8.3125 C-13.45743664 0.9904467 -7.40291187 -0.03374162 0 0 Z " fill="#303030" transform="translate(134.9375,143.6875)"/>
<path d="M0 0 C9.9 0 19.8 0 30 0 C30 3.3 30 6.6 30 10 C23.73 10 17.46 10 11 10 C11 12.97 11 15.94 11 19 C16.28 19 21.56 19 27 19 C27 22.3 27 25.6 27 29 C22.05 29 17.1 29 12 29 C12 31.97 12 34.94 12 38 C17.94 38 23.88 38 30 38 C30 41.3 30 44.6 30 48 C20.1 48 10.2 48 0 48 C0 32.16 0 16.32 0 0 Z " fill="#2F2F2F" transform="translate(308,144)"/>
<path d="M0 0 C9.9 0 19.8 0 30 0 C30 3.3 30 6.6 30 10 C23.73 10 17.46 10 11 10 C11 12.97 11 15.94 11 19 C16.28 19 21.56 19 27 19 C27 22.3 27 25.6 27 29 C22.05 29 17.1 29 12 29 C12 31.97 12 34.94 12 38 C17.94 38 23.88 38 30 38 C30 41.3 30 44.6 30 48 C20.1 48 10.2 48 0 48 C0 32.16 0 16.32 0 0 Z " fill="#2F2F2F" transform="translate(83,144)"/>
<path d="M0 0 C3.96 0 7.92 0 12 0 C12.82173482 3.43551864 13.63252238 6.87305015 14.4375 10.3125 C14.66759766 11.26962891 14.89769531 12.22675781 15.13476562 13.21289062 C16.66515617 19.80022382 17.5648832 26.25197412 18 33 C18.66 33 19.32 33 20 33 C19.9484375 32.12214844 19.896875 31.24429688 19.84375 30.33984375 C19.84375 24.31555582 21.31331015 18.44142566 22.5 12.5625 C22.73847656 11.35400391 22.97695313 10.14550781 23.22265625 8.90039062 C23.80921111 5.93242303 24.40380963 2.96604708 25 0 C29.29 0 33.58 0 38 0 C36.70106871 8.29700133 35.0643958 16.40868261 33.0625 24.5625 C32.81048828 25.60857422 32.55847656 26.65464844 32.29882812 27.73242188 C30.65069757 34.52305697 28.86590863 41.26601931 27 48 C21.72 48 16.44 48 11 48 C9.375 41.5 9.375 41.5 8.80883789 39.2265625 C7.69884412 34.77209797 6.57235925 30.3222008 5.43359375 25.875 C5.16562988 24.82119141 4.89766602 23.76738281 4.62158203 22.68164062 C4.09121759 20.59603128 3.55716808 18.51135481 3.01904297 16.42773438 C1.63083676 10.94725907 0.55608156 5.62781341 0 0 Z " fill="#313130" transform="translate(266,144)"/>
<path d="M0 0 C11.22 0 22.44 0 34 0 C34 3.3 34 6.6 34 10 C30.37 10 26.74 10 23 10 C23 22.54 23 35.08 23 48 C19.04 48 15.08 48 11 48 C11 35.46 11 22.92 11 10 C7.37 10 3.74 10 0 10 C0 6.7 0 3.4 0 0 Z " fill="#333333" transform="translate(155,144)"/>
<path d="M0 0 C2 2 2 2 2.0625 5.125 C0.92874872 11.26509121 -3.66597141 15.26321891 -8.48828125 18.8515625 C-18.00252314 25.10259841 -27.93484475 30.20923076 -39 33 C-39 34.65 -39 36.3 -39 38 C-33.555 37.505 -33.555 37.505 -28 37 C-30.77095565 39.77095565 -33.22428736 40.16418835 -37 40.25 C-39.63920222 40.2111882 -40.72776542 40.17014662 -43 38.75 C-44 37 -44 37 -44 33 C-45.27875 33.04125 -46.5575 33.0825 -47.875 33.125 C-50.0546875 33.1953125 -50.0546875 33.1953125 -52 33 C-52.66 32.34 -53.32 31.68 -54 31 C-50.37 31.33 -46.74 31.66 -43 32 C-42.67 30.35 -42.34 28.7 -42 27 C-34.61773275 14.10512587 -23.38305529 6.63755076 -10 1 C-6.60344068 0.16050949 -3.50133588 -0.2838921 0 0 Z " fill="#E4E4E1" transform="translate(173,71)"/>
<path d="M0 0 C2.4375 1.5 2.4375 1.5 4 3 C4.66 2.34 5.32 1.68 6 1 C9.125 0.875 9.125 0.875 12 1 C12 1.66 12 2.32 12 3 C11.34 3 10.68 3 10 3 C9.67322266 3.78890625 9.67322266 3.78890625 9.33984375 4.59375 C7.49289751 7.91071468 5.04202609 10.64870663 2.5625 13.5 C-3.86947419 20.38557521 -3.86947419 20.38557521 -7 29 C-5.02 28.67 -3.04 28.34 -1 28 C-3 30 -3 30 -6.625 30.125 C-7.73875 30.08375 -8.8525 30.0425 -10 30 C-10.495 27.525 -10.495 27.525 -11 25 C-13.25968391 26.08799596 -15.29924665 27.20474771 -17.375 28.625 C-20.51306092 30.2687462 -22.50297795 30.38855801 -26 30 C-28.76223278 27.23776722 -28.57856291 24.79293383 -29 21 C-30.98 22.65 -32.96 24.3 -35 26 C-35.66 25.67 -36.32 25.34 -37 25 C-36.43152344 24.5153125 -35.86304688 24.030625 -35.27734375 23.53125 C-31.39264331 20.15888902 -27.70464429 16.80382857 -24.375 12.875 C-17.8421443 5.21319459 -10.79280677 -1.22182718 0 0 Z " fill="#414141" transform="translate(248,104)"/>
<path d="M0 0 C2 2 2 2 2.0625 5.125 C0.92874872 11.26509121 -3.66597141 15.26321891 -8.48828125 18.8515625 C-18.00252314 25.10259841 -27.93484475 30.20923076 -39 33 C-39 34.65 -39 36.3 -39 38 C-33.555 37.505 -33.555 37.505 -28 37 C-30.77095565 39.77095565 -33.22428736 40.16418835 -37 40.25 C-39.63920222 40.2111882 -40.72776542 40.17014662 -43 38.75 C-44 37 -44 37 -44 33 C-45.27875 33.04125 -46.5575 33.0825 -47.875 33.125 C-50.0546875 33.1953125 -50.0546875 33.1953125 -52 33 C-52.66 32.34 -53.32 31.68 -54 31 C-50.37 31.33 -46.74 31.66 -43 32 C-42.67 30.35 -42.34 28.7 -42 27 C-34.61773275 14.10512587 -23.38305529 6.63755076 -10 1 C-6.60344068 0.16050949 -3.50133588 -0.2838921 0 0 Z M-34.75 24.5625 C-36.62613359 27.03459399 -36.62613359 27.03459399 -37 30 C-23.27059638 28.30450136 -9.82501412 18.35856571 -0.6015625 8.4140625 C1.36855455 5.92730739 1.36855455 5.92730739 1 2 C-13.46421255 0.34017233 -26.41646026 13.77791917 -34.75 24.5625 Z " fill="#3F3F3F" transform="translate(173,71)"/>
<path d="M0 0 C0.28920199 3.4957925 0.3139582 5.47238713 -1.50390625 8.52734375 C-3.64913498 11.03893033 -5.79004729 13.54492929 -8 16 C-8.91265625 17.01900391 -8.91265625 17.01900391 -9.84375 18.05859375 C-13.52779444 21.9519589 -17.10009058 24.78117309 -22 27 C-24.4375 26.75 -24.4375 26.75 -26 26 C-25.61047741 16.65145783 -19.33444518 10.93426489 -12.87890625 4.69921875 C-8.58021148 0.81162577 -5.83147937 -0.4068474 0 0 Z " fill="#E4E4E1" transform="translate(249,106)"/>
<path d="M0 0 C6.96153846 0 6.96153846 0 11 3 C12.6196057 6.2392114 12.22623755 9.75704381 12.25 13.3125 C12.270625 14.07240234 12.29125 14.83230469 12.3125 15.61523438 C12.34464805 20.24053535 11.99608665 23.24034757 9 27 C7 28 7 28 0 28 C0 18.76 0 9.52 0 0 Z " fill="#E6E6E3" transform="translate(54,154)"/>
<path d="M0 0 C3.625 0.25 3.625 0.25 5.5625 1.5 C6.625 3.25 6.625 3.25 6.625 7.25 C3.625 6.25 3.625 6.25 1.625 3.25 C0.305 3.58 -1.015 3.91 -2.375 4.25 C-2.705 5.9 -3.035 7.55 -3.375 9.25 C0.585 9.25 4.545 9.25 8.625 9.25 C8.625 13.21 8.625 17.17 8.625 21.25 C5.77661879 22.6741906 3.29712092 22.41995508 0.125 22.4375 C-1.0403125 22.45167969 -2.205625 22.46585938 -3.40625 22.48046875 C-6.375 22.25 -6.375 22.25 -8.375 20.25 C-8.5703125 17.6484375 -8.5703125 17.6484375 -8.5 14.625 C-8.48195312 13.62210938 -8.46390625 12.61921875 -8.4453125 11.5859375 C-8.42210937 10.81507813 -8.39890625 10.04421875 -8.375 9.25 C-7.715 8.92 -7.055 8.59 -6.375 8.25 C-5.67008733 5.92793475 -5.00287571 3.59406932 -4.375 1.25 C-3.375 0.25 -3.375 0.25 0 0 Z " fill="#383838" transform="translate(186.375,224.75)"/>
<path d="M0 0 C0 0.66 0 1.32 0 2 C-0.94875 2.721875 -1.8975 3.44375 -2.875 4.1875 C-6.75452556 7.37090101 -9.19928891 11.0699125 -11.875 15.25 C-19.01441657 26.30758673 -26.90458968 35.54905453 -38.9375 41.4375 C-43.58378671 42.2908996 -48.29766267 42.52248193 -53 42 C-53.66 41.34 -54.32 40.68 -55 40 C-54.29875 40.04640625 -53.5975 40.0928125 -52.875 40.140625 C-45.18561813 40.43315583 -40.14466308 39.47036865 -34.19921875 34.4921875 C-30.26909336 30.74506129 -26.97521061 26.5386842 -23.7109375 22.2109375 C-21.62700821 19.51800604 -19.37786901 17.00636494 -17.06640625 14.5078125 C-15.71128483 12.8995823 -15.71128483 12.8995823 -16 10 C-13.74326922 8.12921143 -11.53296304 6.46414588 -9.125 4.8125 C-8.47402344 4.34908203 -7.82304687 3.88566406 -7.15234375 3.40820312 C-2.28348214 0 -2.28348214 0 0 0 Z " fill="#3A3A3A" transform="translate(169,92)"/>
<path d="M0 0 C1.0415625 0.13535156 2.083125 0.27070312 3.15625 0.41015625 C-1.48229438 6.72153176 -6.38048811 12.77402638 -11.42773438 18.76171875 C-11.98396484 19.43460938 -12.54019531 20.1075 -13.11328125 20.80078125 C-13.61448486 21.39922852 -14.11568848 21.99767578 -14.63208008 22.61425781 C-15.93507595 24.54551665 -16.42124879 26.13384876 -16.84375 28.41015625 C-13.37875 27.91515625 -13.37875 27.91515625 -9.84375 27.41015625 C-11.84375 29.41015625 -11.84375 29.41015625 -14.96875 29.53515625 C-16.391875 29.47328125 -16.391875 29.47328125 -17.84375 29.41015625 C-18.50375 27.10015625 -19.16375 24.79015625 -19.84375 22.41015625 C-20.38644531 22.85488281 -20.92914063 23.29960938 -21.48828125 23.7578125 C-22.56142578 24.60666016 -22.56142578 24.60666016 -23.65625 25.47265625 C-24.36394531 26.04113281 -25.07164062 26.60960937 -25.80078125 27.1953125 C-26.47496094 27.59621094 -27.14914063 27.99710938 -27.84375 28.41015625 C-28.83375 28.08015625 -29.82375 27.75015625 -30.84375 27.41015625 C-30.27527344 27.05824219 -29.70679688 26.70632812 -29.12109375 26.34375 C-22.30058635 21.9827244 -16.99618172 17.39683791 -12.2109375 10.8515625 C-11.73833496 10.21541016 -11.26573242 9.57925781 -10.77880859 8.92382812 C-9.83618278 7.64219058 -8.91374272 6.34541097 -8.01416016 5.03320312 C-5.37831979 1.44372599 -4.65278635 0.49648635 0 0 Z " fill="#3C3C3C" transform="translate(197.84375,104.58984375)"/>
<path d="M0 0 C-0.66 0.515625 -1.32 1.03125 -2 1.5625 C-14.66521653 11.03314315 -14.66521653 11.03314315 -21.3125 24.625 C-21.1578125 25.800625 -21.1578125 25.800625 -21 27 C-20.01 27.66 -19.02 28.32 -18 29 C-20.375 29.125 -20.375 29.125 -23 29 C-25.76223278 26.23776722 -25.57856291 23.79293383 -26 20 C-27.98 21.65 -29.96 23.3 -32 25 C-32.66 24.67 -33.32 24.34 -34 24 C-33.43152344 23.5153125 -32.86304688 23.030625 -32.27734375 22.53125 C-28.39264331 19.15888902 -24.70464429 15.80382857 -21.375 11.875 C-15.15653258 4.54557669 -9.96876316 -0.38341397 0 0 Z " fill="#393939" transform="translate(245,105)"/>
<path d="M0 0 C0.845625 0.185625 1.69125 0.37125 2.5625 0.5625 C0.19796174 4.83777625 -2.67974694 8.34278264 -5.875 12 C-12.54743437 19.47425714 -12.54743437 19.47425714 -16.4375 28.5625 C-10.9925 27.0775 -10.9925 27.0775 -5.4375 25.5625 C-9.37980769 29.50480769 -9.37980769 29.50480769 -13.875 29.75 C-17.4375 29.5625 -17.4375 29.5625 -20.4375 27.5625 C-21.04209075 23.35534787 -20.95851521 21.30680744 -18.49609375 17.7890625 C-17.63113281 16.93054688 -16.76617187 16.07203125 -15.875 15.1875 C-12.47949271 11.72494461 -9.4700598 8.34561904 -6.6875 4.375 C-3.88656392 0.63598319 -3.88656392 0.63598319 0 0 Z " fill="#3A3A39" transform="translate(216.4375,104.4375)"/>
<path d="M0 0 C-2.07423392 3.71386644 -4.3931414 6.66425308 -7.3125 9.75 C-14.87256785 17.89825441 -14.87256785 17.89825441 -19 28 C-17.35 28 -15.7 28 -14 28 C-14 28.33 -14 28.66 -14 29 C-19.3820598 29.35880399 -19.3820598 29.35880399 -21.9375 27.875 C-23.56051416 25.01085736 -22.77054942 23.13941672 -22 20 C-19.69611117 16.0644293 -16.834888 12.56694747 -14 9 C-13.30777344 8.10539062 -12.61554688 7.21078125 -11.90234375 6.2890625 C-11.23332031 5.47179687 -10.56429687 4.65453125 -9.875 3.8125 C-8.97394531 2.70841797 -8.97394531 2.70841797 -8.0546875 1.58203125 C-5.29945558 -0.53939256 -3.38699814 -0.29264432 0 0 Z " fill="#383838" transform="translate(181,105)"/>
<path d="M0 0 C2.64 0 5.28 0 8 0 C8 0.66 8 1.32 8 2 C6.68 2 5.36 2 4 2 C4 2.66 4 3.32 4 4 C5.32 4 6.64 4 8 4 C9.77409808 2.07977297 9.77409808 2.07977297 11 0 C12.9375 0.375 12.9375 0.375 15 1 C15.33 1.66 15.66 2.32 16 3 C14.68 2.67 13.36 2.34 12 2 C12 2.66 12 3.32 12 4 C13.32 4.66 14.64 5.32 16 6 C15.67 7.32 15.34 8.64 15 10 C9.06 10 3.12 10 -3 10 C-2.01 6.7 -1.02 3.4 0 0 Z " fill="#BABAB8" transform="translate(215,256)"/>
<path d="M0 0 C6.625 -0.25 6.625 -0.25 10 2 C10.3984375 3.875 10.3984375 3.875 10.375 6 C10.38273438 6.70125 10.39046875 7.4025 10.3984375 8.125 C10 10 10 10 7 12 C4.66800612 12.07905064 2.33167378 12.08798769 0 12 C0 8.04 0 4.08 0 0 Z " fill="#DFDFDC" transform="translate(204,154)"/>
<path d="M0 0 C2.9375 0.75 2.9375 0.75 4.9375 2.75 C4.9375 4.4 4.9375 6.05 4.9375 7.75 C8.5675 7.75 12.1975 7.75 15.9375 7.75 C15.9375 8.08 15.9375 8.41 15.9375 8.75 C12.3075 8.75 8.6775 8.75 4.9375 8.75 C4.9375 9.41 4.9375 10.07 4.9375 10.75 C3.679375 10.62625 2.42125 10.5025 1.125 10.375 C0.41730469 10.30539063 -0.29039062 10.23578125 -1.01953125 10.1640625 C-3.0625 9.75 -3.0625 9.75 -6.0625 7.75 C-6.4375 4.75 -6.4375 4.75 -6.0625 1.75 C-3.0625 -0.25 -3.0625 -0.25 0 0 Z " fill="#D9D9D6" transform="translate(136.0625,153.25)"/>
<path d="M0 0 C0.33 0 0.66 0 1 0 C0.87873244 5.82084278 -0.80462592 8.81577643 -4.79296875 13.0234375 C-13.81489895 21.10325464 -26.08846718 27.70932061 -38 30 C-38.33 29.34 -38.66 28.68 -39 28 C-38.44054687 27.87625 -37.88109375 27.7525 -37.3046875 27.625 C-24.30891706 24.28203654 -8.55218732 15.39952803 -1 4 C-0.29485154 1.85266073 -0.29485154 1.85266073 0 0 Z " fill="#474746" transform="translate(174,73)"/>
<path d="M0 0 C2.64 0 5.28 0 8 0 C8 0.66 8 1.32 8 2 C6.68 2 5.36 2 4 2 C4 2.99 4 3.98 4 5 C4.99 5.33 5.98 5.66 7 6 C5.68 6 4.36 6 3 6 C3 6.99 3 7.98 3 9 C4.65 9 6.3 9 8 9 C8 9.33 8 9.66 8 10 C4.37 10 0.74 10 -3 10 C-2.01 6.7 -1.02 3.4 0 0 Z " fill="#9D9D9B" transform="translate(215,256)"/>
<path d="M0 0 C2.375 -0.125 2.375 -0.125 5 0 C5.66 0.66 6.32 1.32 7 2 C6.56237193 5.17280351 5.22638495 8.05667611 4 11 C3.01 11 2.02 11 1 11 C-0.62950412 6.87831311 -1.26264601 4.29299643 0 0 Z " fill="#E2E2DF" transform="translate(245,172)"/>
<path d="M0 0 C0.66 0 1.32 0 2 0 C2 2.97 2 5.94 2 9 C3.32 9.33 4.64 9.66 6 10 C3.36 10 0.72 10 -2 10 C-2 9.01 -2 8.02 -2 7 C-3.32 7 -4.64 7 -6 7 C-6 7.99 -6 8.98 -6 10 C-6.66 10 -7.32 10 -8 10 C-7.01 7.03 -6.02 4.06 -5 1 C-4.34 1 -3.68 1 -3 1 C-2.34 2.65 -1.68 4.3 -1 6 C-0.67 4.02 -0.34 2.04 0 0 Z " fill="#8D8D8B" transform="translate(202,256)"/>
<path d="M0 0 C0.33 1.32 0.66 2.64 1 4 C0.01 4.66 -0.98 5.32 -2 6 C-2.72382467 8.05925139 -2.72382467 8.05925139 -3 10 C-4.98 10 -6.96 10 -9 10 C-9 7.03 -9 4.06 -9 1 C-8.67 2.32 -8.34 3.64 -8 5 C-7.01 4.67 -6.02 4.34 -5 4 C-5 3.01 -5 2.02 -5 1 C-2 0 -2 0 0 0 Z " fill="#9B9B99" transform="translate(153,256)"/>
<path d="M0 0 C1.8125 0 1.8125 0 4 1 C5.8456968 2.89828075 7.38401815 4.89024592 9 7 C5.37 7 1.74 7 -2 7 C-2 2 -2 2 0 0 Z " fill="#CCCCCA" transform="translate(185,227)"/>
<path d="M0 0 C1.32 0 2.64 0 4 0 C5.75 2 5.75 2 7 4 C6.67 4.66 6.34 5.32 6 6 C5.67 5.67 5.34 5.34 5 5 C4.67 6.65 4.34 8.3 4 10 C2.68 10 1.36 10 0 10 C0 6.7 0 3.4 0 0 Z " fill="#959594" transform="translate(172,256)"/>
<path d="M0 0 C-1 3 -1 3 -4.2734375 4.640625 C-5.63595866 5.18882687 -7.00343713 5.72482909 -8.375 6.25 C-9.40367187 6.67152344 -9.40367187 6.67152344 -10.453125 7.1015625 C-15.61248605 9.12917132 -15.61248605 9.12917132 -19 8 C-19 7.67 -19 7.34 -19 7 C-18.35933594 6.82984375 -17.71867188 6.6596875 -17.05859375 6.484375 C-11.97342849 5.05961931 -4.84790899 0 0 0 Z " fill="#535352" transform="translate(154,94)"/>
<path d="M0 0 C2.125 0.375 2.125 0.375 4 1 C3.67 2.65 3.34 4.3 3 6 C1.68 6.33 0.36 6.66 -1 7 C-1.625 4.625 -1.625 4.625 -2 2 C-1.34 1.34 -0.68 0.68 0 0 Z " fill="#363636" transform="translate(224,89)"/>
<path d="M0 0 C0.66 0 1.32 0 2 0 C-0.1737936 4.65812915 -2.73358487 6.53519108 -7.125 9.125 C-8.03507813 9.66382813 -8.94515625 10.20265625 -9.8828125 10.7578125 C-10.58148438 11.16773438 -11.28015625 11.57765625 -12 12 C-12.33 11.34 -12.66 10.68 -13 10 C-12.39671875 9.61328125 -11.7934375 9.2265625 -11.171875 8.828125 C-7.04710131 6.14036924 -3.42499639 3.56199625 0 0 Z " fill="#616161" transform="translate(240,122)"/>
<path d="M0 0 C1.32 0 2.64 0 4 0 C4 1.32 4 2.64 4 4 C2.68 4 1.36 4 0 4 C0.66 5.32 1.32 6.64 2 8 C0.68 7.34 -0.64 6.68 -2 6 C-1.125 1.125 -1.125 1.125 0 0 Z " fill="#4A4A4A" transform="translate(112,124)"/>
<path d="M0 0 C0.99 0.33 1.98 0.66 3 1 C-0.01887244 4.48331435 -2.56909529 5.79157144 -7 7 C-7 6.34 -7 5.68 -7 5 C-5.57421875 3.67578125 -5.57421875 3.67578125 -3.6875 2.3125 C-3.07261719 1.85488281 -2.45773438 1.39726563 -1.82421875 0.92578125 C-1.22222656 0.62027344 -0.62023437 0.31476563 0 0 Z " fill="#414140" transform="translate(161,88)"/>
<path d="M0 0 C1.65 0 3.3 0 5 0 C4.67 1.65 4.34 3.3 4 5 C3.01 5 2.02 5 1 5 C0.67 3.35 0.34 1.7 0 0 Z " fill="#C8C8C5" transform="translate(144,256)"/>
</svg>
